<svg width="33" height="32" viewBox="0 0 33 32" fill="none" xmlns="http://www.w3.org/2000/svg">
<rect x="1.33301" y="1" width="30" height="30" rx="15" fill="#A90466" stroke="#A90466" stroke-width="2"/>
<path d="M8.83301 16.5H15.833V23.5C15.833 23.7765 16.057 24 16.333 24C16.609 24 16.833 23.7765 16.833 23.5V16.5H23.833C24.109 16.5 24.333 16.2765 24.333 16C24.333 15.7235 24.109 15.5 23.833 15.5H16.833V8.5C16.833 8.2235 16.609 8 16.333 8C16.057 8 15.833 8.2235 15.833 8.5V15.5H8.83301C8.55701 15.5 8.33301 15.7235 8.33301 16C8.33301 16.2765 8.55701 16.5 8.83301 16.5Z" fill="white"/>
</svg>
